<?xml version="1.0" encoding="UTF-8" standalone="no"?>
<svg
   xmlns:dc="http://purl.org/dc/elements/1.1/"
   xmlns:cc="http://creativecommons.org/ns#"
   xmlns:rdf="http://www.w3.org/1999/02/22-rdf-syntax-ns#"
   xmlns:svg="http://www.w3.org/2000/svg"
   xmlns="http://www.w3.org/2000/svg"
   id="svg84"
   xml:space="preserve"
   viewBox="0 0 550 445"
   height="445"
   width="550"
   version="1.1"><metadata
     id="metadata88"><rdf:RDF><cc:Work
         rdf:about=""><dc:format>image/svg+xml</dc:format><dc:type
           rdf:resource="http://purl.org/dc/dcmitype/StillImage" /></cc:Work></rdf:RDF></metadata><defs
     id="defs4"><style
       id="style2"
       type="text/css">@import url(&quot;https://fonts.googleapis.com/css2?family=Audiowide:wght@400&quot;);@import url(&quot;https://fonts.googleapis.com/css2?family=Chakra+Petch:wght@400&quot;);</style></defs><defs
     id="defs6" /><g
     id="logo-slogan"
     style=""
     transform="matrix(0.75 0 0 0.75 277.17 241.01)"><linearGradient
       y2="22.599999999999998"
       x2="0"
       y1="0"
       x1="0"
       gradientTransform="matrix(1 0 0 1 -101.14 -11.3)"
       gradientUnits="userSpaceOnUse"
       id="SVGID_6"><stop
         id="stop8"
         style="stop-color:rgb(158,158,158);stop-opacity: 1"
         offset="0%" /></linearGradient><text
       id="text49"
       style="stroke: none; stroke-width: 1; stroke-dasharray: none; stroke-linecap: butt; stroke-dashoffset: 0; stroke-linejoin: miter; stroke-miterlimit: 4; fill: url(#SVGID_6); fill-rule: nonzero; opacity: 1; white-space: pre;"
       font-weight="normal"
       font-style="normal"
       font-size="20"
       font-family="Chakra Petch"
       xml:space="preserve"><tspan
         id="tspan11"
         style="white-space: pre; "
         y="6.28"
         x="-101.14" /><tspan
         id="tspan13"
         y="6.28"
         x="-95.74">K</tspan><tspan
         id="tspan15"
         y="6.28"
         x="-80.9">E</tspan><tspan
         id="tspan17"
         y="6.28"
         x="-68.28">E</tspan><tspan
         id="tspan19"
         y="6.28"
         x="-55.67">P</tspan><tspan
         id="tspan21"
         style="white-space: pre; "
         y="6.28"
         x="-44.14" /><tspan
         id="tspan23"
         y="6.28"
         x="-38.74">C</tspan><tspan
         id="tspan25"
         y="6.28"
         x="-25">O</tspan><tspan
         id="tspan27"
         y="6.28"
         x="-10.16">D</tspan><tspan
         id="tspan29"
         y="6.28"
         x="4.68">I</tspan><tspan
         id="tspan31"
         y="6.28"
         x="11.74">N</tspan><tspan
         id="tspan33"
         y="6.28"
         x="26.59">G</tspan><tspan
         id="tspan35"
         style="white-space: pre; "
         y="6.28"
         x="41.43" /><tspan
         id="tspan37"
         y="6.28"
         x="46.83">{</tspan><tspan
         id="tspan39"
         y="6.28"
         x="56.83">}</tspan><tspan
         id="tspan41"
         style="white-space: pre; "
         y="6.28"
         x="66.83" /><tspan
         id="tspan43"
         y="6.28"
         x="72.23">&lt;</tspan><tspan
         id="tspan45"
         y="6.28"
         x="83.91">/</tspan><tspan
         id="tspan47"
         y="6.28"
         x="89.86">&gt;</tspan></text>
</g><g
     id="icon"
     transform="matrix(0.32 0 0 0.32 147.6 222.5)"><linearGradient
       y2="180"
       x2="0"
       y1="0"
       x1="0"
       gradientTransform="matrix(1 0 0 1 0 43.75)"
       gradientUnits="userSpaceOnUse"
       id="SVGID_5"><stop
         id="stop52"
         style="stop-color:rgb(51,51,51);stop-opacity: 1"
         offset="0%" /><stop
         id="stop54"
         style="stop-color:rgb(221,24,24);stop-opacity: 1"
         offset="100%" /></linearGradient><path
       id="path57"
       stroke-linecap="round"
       d="M 256.975 100.34 c 0.041 0.736 -0.013 1.485 -0.198 2.229 l -16.5 66 c -0.832 3.325 -3.812 5.663 -7.238 5.681 l -99 0.5 c -0.013 0 -0.025 0 -0.038 0 H 35 c -3.444 0 -6.445 -2.346 -7.277 -5.688 l -16.5 -66.25 c -0.19 -0.764 -0.245 -1.534 -0.197 -2.289 C 4.643 98.512 0 92.539 0 85.5 c 0 -8.685 7.065 -15.75 15.75 -15.75 S 31.5 76.815 31.5 85.5 c 0 4.891 -2.241 9.267 -5.75 12.158 l 20.658 20.814 c 5.221 5.261 12.466 8.277 19.878 8.277 c 8.764 0 17.12 -4.162 22.382 -11.135 l 33.95 -44.984 C 119.766 67.78 118 63.842 118 59.5 c 0 -8.685 7.065 -15.75 15.75 -15.75 s 15.75 7.065 15.75 15.75 c 0 4.212 -1.672 8.035 -4.375 10.864 c 0.009 0.012 0.02 0.022 0.029 0.035 l 33.704 45.108 c 5.26 7.04 13.646 11.243 22.435 11.243 c 7.48 0 14.514 -2.913 19.803 -8.203 l 20.788 -20.788 C 238.301 94.869 236 90.451 236 85.5 c 0 -8.685 7.065 -15.75 15.75 -15.75 s 15.75 7.065 15.75 15.75 C 267.5 92.351 263.095 98.178 256.975 100.34 z M 238.667 198.25 c 0 -4.142 -3.358 -7.5 -7.5 -7.5 h -194 c -4.142 0 -7.5 3.358 -7.5 7.5 v 18 c 0 4.142 3.358 7.5 7.5 7.5 h 194 c 4.142 0 7.5 -3.358 7.5 -7.5 V 198.25 z"
       transform=" translate(-133.75, -133.75)"
       style="stroke: none; stroke-width: 1; stroke-dasharray: none; stroke-linecap: butt; stroke-dashoffset: 0; stroke-linejoin: miter; stroke-miterlimit: 4; fill: url(#SVGID_5); fill-rule: nonzero; opacity: 1;" /></g><g
     id="logo-name"
     style=""
     transform="matrix(1.13 0 0 1.13 323.56 215.55)"><linearGradient
       y2="33.89999999999999"
       x2="0"
       y1="0"
       x1="0"
       gradientTransform="matrix(1 0 0 1 -108.42 -16.95)"
       gradientUnits="userSpaceOnUse"
       id="SVGID_2"><stop
         id="stop60"
         style="stop-color:rgb(183,28,28);stop-opacity: 1"
         offset="0%" /></linearGradient><text
       id="text81"
       style="stroke: none; stroke-width: 1; stroke-dasharray: none; stroke-linecap: butt; stroke-dashoffset: 0; stroke-linejoin: miter; stroke-miterlimit: 4; fill: url(#SVGID_2); fill-rule: nonzero; opacity: 1; white-space: pre;"
       font-weight="normal"
       font-style="normal"
       font-size="30"
       font-family="Audiowide"
       xml:space="preserve"><tspan
         id="tspan63"
         y="9.42"
         x="-108.42">K</tspan><tspan
         id="tspan65"
         y="9.42"
         x="-83.11">I</tspan><tspan
         id="tspan67"
         y="9.42"
         x="-73.92">N</tspan><tspan
         id="tspan69"
         y="9.42"
         x="-47.61">G</tspan><tspan
         id="tspan71"
         y="9.42"
         x="-22.01">D</tspan><tspan
         id="tspan73"
         y="9.42"
         x="3.59">O</tspan><tspan
         id="tspan75"
         y="9.42"
         x="30.3">M</tspan><tspan
         id="tspan77"
         y="9.42"
         x="60.07">A</tspan><tspan
         id="tspan79"
         y="9.42"
         x="86">C</tspan></text>
</g></svg>